<!--?xml version="1.0" encoding="utf-8"?-->
<!-- Generator: Adobe Illustrator 18.1.1, SVG Export Plug-In . SVG Version: 6.00 Build 0)  -->

<svg version="1.1" id="_x32_" xmlns="http://www.w3.org/2000/svg" xmlns:xlink="http://www.w3.org/1999/xlink" x="0px" y="0px" viewBox="0 0 512 512" style="width: 256px; height: 256px; opacity: 1;" xml:space="preserve">
<style type="text/css">
	.st0{fill:#4B4B4B;}
</style>
<g>
	<path class="st0" d="M321.179,26.314c0-23.124-21.031-31.539-35.747-23.124c-47.356,27.058-94.611,86.203-94.611,100.919v94.611
		h130.358C321.179,198.72,321.179,49.446,321.179,26.314z" style="fill: rgb(75, 75, 75);"></path>
	<path class="st0" d="M337.996,211.336h-163.99v96.719h163.99V211.336z M207.638,295.445h-12.616v-71.494h12.616V295.445z" style="fill: rgb(75, 75, 75);"></path>
	<path class="st0" d="M163.489,320.663V494.12c0,9.875,7.999,17.88,17.882,17.88h149.26c9.868,0,17.88-8.005,17.88-17.88V320.663
		H163.489z M197.122,490.976h-12.616v-157.69h12.616V490.976z" style="fill: rgb(75, 75, 75);"></path>
</g>
</svg>
