<!--?xml version="1.0" encoding="utf-8"?-->
<!-- Generator: Adobe Illustrator 15.1.0, SVG Export Plug-In . SVG Version: 6.00 Build 0)  -->

<svg version="1.1" id="_x32_" xmlns="http://www.w3.org/2000/svg" xmlns:xlink="http://www.w3.org/1999/xlink" x="0px" y="0px" width="512px" height="512px" viewBox="0 0 512 512" style="width: 256px; height: 256px; opacity: 1;" xml:space="preserve">
<style type="text/css">

	.st0{fill:#4B4B4B;}

</style>
<g>
	<path class="st0" d="M259.245,54.451c-48.125,0-87.125,39-87.125,87.125c0,48.109,39,87.125,87.125,87.125
		s87.125-39.016,87.125-87.125C346.37,93.451,307.37,54.451,259.245,54.451z M290.339,168.076c-1.734,3.25-4.125,5.953-7.156,8.188
		c-3.016,2.219-6.641,3.875-10.875,4.969c-1.844,0.453-3.781,0.781-5.75,1.063v12.281h-14.656v-12.047
		c-4.172-0.344-8.172-1-11.922-2.031c-5.75-1.563-13.25-7.938-13.25-7.938c-0.656-0.359-1.078-1.016-1.156-1.75
		c-0.109-0.75,0.156-1.484,0.672-2.016l7.359-7.328c0.781-0.797,2.016-0.938,2.969-0.375c0,0,5.5,4.797,9.672,5.922
		c4.156,1.156,8.297,1.703,12.406,1.703c5.219,0,9.516-0.922,12.938-2.75c3.406-1.859,5.109-4.719,5.109-8.641
		c0-2.797-0.844-5.016-2.531-6.641c-1.656-1.609-4.516-2.641-8.531-3.078l-13.156-1.156c-7.781-0.75-13.797-2.922-18.016-6.484
		c-4.234-3.578-6.344-8.984-6.344-16.25c0-4,0.813-7.578,2.453-10.719c1.609-3.141,3.828-5.781,6.641-7.953
		c2.828-2.172,6.109-3.781,9.828-4.859c1.563-0.469,3.203-0.766,4.859-1.031V88.561h14.656v10.391
		c3.422,0.328,6.688,0.875,9.734,1.719c5.141,1.406,10.547,5.609,10.547,5.609c0.672,0.359,1.141,1.016,1.25,1.781
		c0.109,0.75-0.141,1.5-0.656,2.031l-6.906,7.031c-0.734,0.734-1.859,0.938-2.797,0.422c0,0-4.094-2.891-7.609-3.813
		s-7.234-1.391-11.125-1.391c-5.094,0-8.859,1-11.297,2.938c-2.438,1.953-3.656,4.5-3.656,7.625c0,2.828,0.859,4.984,2.609,6.5
		c1.734,1.516,4.641,2.516,8.766,2.938l11.516,0.969c8.578,0.75,15.047,3.016,19.422,6.813c4.406,3.797,6.594,9.328,6.594,16.578
		C292.948,161.029,292.073,164.811,290.339,168.076z" style="fill: rgb(75, 75, 75);"></path>
	<path class="st0" d="M225.558,316.607c20.281,0,83.609,0,83.609,0c16.813,0,30.422-13.625,30.422-30.422
		s-13.609-30.391-30.422-30.391c-15.203,0-45.594,0-121.609,0c-76.031,0-100.094,31.672-126.703,58.266l-48.281,42.172
		c-3.125,2.734-4.938,6.672-4.938,10.828v140.156c0,1.875,1.094,3.563,2.797,4.344s3.703,0.516,5.125-0.719l93.313-79.984
		c3.297-2.813,7.672-3.984,11.922-3.219l145.406,26.422c10.141,1.859,20.594-0.469,29.016-6.422
		c0,0,185.594-129.047,199.281-140.469l0,0c13.078-11.984,12.922-29.375,0.938-42.422c-12-13.094-34.375-10.313-49.297,0.734
		c-13.672,11.406-107.078,72.781-107.078,72.781h-113.5l-0.359,0.172c-5.984-0.203-10.656-5.203-10.469-11.188
		c0.219-5.969,5.219-10.656,11.188-10.453L225.558,316.607z" style="fill: rgb(75, 75, 75);"></path>
	<path class="st0" d="M362.698-0.002c-27.672,0-51.813,14.797-65.172,36.844c42.719,15.672,73.344,56.641,73.344,104.734
		c0,3.547-0.203,7.047-0.531,10.516c38.516-3.844,68.594-36.328,68.594-75.859C438.933,34.139,404.808-0.002,362.698-0.002z" style="fill: rgb(75, 75, 75);"></path>
</g>
</svg>
